<svg width="1520" height="415" viewBox="0 0 1520 415" fill="none" xmlns="http://www.w3.org/2000/svg">
<path d="M1519.27 51.23H1458.51V316.15H1519.27V51.23ZM1420.45 139.54H1359.69V238.8C1359.69 246.57 1357.22 252.57 1352.26 257.52C1347.32 262.46 1341.31 264.58 1334.25 264.58C1326.48 264.58 1320.47 262.46 1315.53 257.52C1310.59 252.57 1308.46 246.57 1308.46 238.8V139.54H1247.7V233.85C1247.7 259.99 1255.82 280.83 1272.07 296.72C1288.32 312.62 1308.8 320.39 1334.24 320.39C1359.31 320.39 1379.8 312.62 1396.05 296.72C1412.3 280.83 1420.42 259.99 1420.42 233.85V139.54H1420.45ZM1164.24 139.54L1128.57 219.02L1092.53 139.54H1028.24L1118.67 320.39H1138.09L1228.52 139.54H1164.24V139.54ZM1007.7 51.23H946.94V316.15H1007.7V51.23ZM907.33 139.54H846.56V316.15H907.33V139.54ZM876.58 41C865.98 41 857.16 44.53 850.09 51.59C843.02 58.65 839.5 67.13 839.5 77.02C839.5 87.26 843.03 95.74 850.09 102.45C857.16 109.52 865.98 112.7 876.58 112.7C886.83 112.7 895.66 109.52 903.08 102.45C910.13 95.38 914.02 86.91 914.02 77.02C914.02 67.13 910.14 58.65 903.08 51.59C895.66 44.52 886.84 41 876.58 41ZM826.88 316.16L761.88 218.32L822.64 139.55H752.34L697.24 210.9V51.23H636.48V316.15H697.24V222.9L760.11 316.15H826.88V316.16ZM519.01 78.79C494.99 78.79 475.2 85.15 460.02 97.87C444.83 110.59 437.42 127.18 437.42 147.68C437.42 177.35 456.84 201.02 496.41 217.97L520.43 228.57C529.61 232.8 535.61 235.99 539.15 238.46C542.32 241.29 544.09 245.17 544.09 250.12C544.09 261.42 535.97 267.08 520.07 267.08C500.29 267.08 482.99 257.18 468.15 237.05L427.17 268.14C435.65 284.39 448.02 297.11 464.27 306.29C480.5 315.83 498.88 320.42 520.07 320.42C544.8 320.42 564.94 314.07 581.19 300.99C597.44 287.92 605.55 270.26 605.55 247.65C605.55 231.4 600.61 217.63 590.73 206.68C580.83 195.73 566 185.84 545.86 177.36L519.01 166.06C511.24 163.23 505.94 160.41 503.12 157.58C500.29 154.75 498.88 151.23 498.88 146.99C498.88 137.1 505.59 132.15 519.71 132.15C527.83 132.15 534.9 134.27 540.9 138.15C546.55 142.39 552.57 148.4 558.22 156.87L598.83 125.79C582.94 94.69 556.45 78.79 519.01 78.79Z" fill="white"/>
<path d="M214.52 406.23C264.36 376.77 314.22 347.3 364.13 318.01C376.48 310.78 383.23 298.91 383.12 284.58C383.01 260.11 383.03 235.66 383.05 211.19L383.07 183.59L383.06 146.93C383.06 124.94 383.06 102.94 383.09 80.96C383.12 67.56 376.54 56.15 365.01 49.65C358.25 45.82 351.56 41.87 344.95 37.79C332.9 30.41 319.08 30.49 307 38.02C302.98 40.53 298.91 42.95 294.83 45.38L286.35 50.48L284.18 49.18C272.01 41.95 259.81 34.76 247.62 27.56L242.38 24.46C231.6 18.1 220.82 11.74 210.06 5.34003C204.07 1.78003 197.79 0 191.51 0C185.29 0 179.08 1.75002 173.18 5.24002C121.38 35.88 69.53 66.44 17.69 97C6.28 103.73 0 114.8 0 128.18C0.07 180.97 0.0700043 233.76 0.0200043 286.56C0.0200043 299.6 6.2 310.43 17.41 317.03L173.14 408.89C174.62 409.77 176.1 410.6 177.52 411.26C187.91 416.1 199.27 415.25 210.39 408.65L214.52 406.23ZM343.38 87.36L343.42 87.38L339.64 94.94L343.38 87.36Z" fill="white"/>
<path fill-rule="evenodd" clip-rule="evenodd" d="M361.34 183.61C361.34 217.31 361.25 250.98 361.4 284.67C361.44 291.46 358.91 295.88 353.16 299.25C301.82 329.38 250.57 359.68 199.34 389.96C195.28 392.37 191.24 393.7 186.72 391.59C185.65 391.1 184.65 390.47 183.63 389.86C131.9 359.35 80.19 328.83 28.47 298.34C23.96 295.68 21.77 291.97 21.77 286.58C21.81 233.78 21.81 180.98 21.76 128.17C21.76 122.49 24.01 118.53 28.75 115.74C80.59 85.1802 132.45 54.6102 184.25 23.9702C189.31 20.9802 193.95 21.0702 198.98 24.0502C226.76 40.5602 254.66 56.8802 282.43 73.4402C285.41 75.2102 287.53 75.3802 290.54 73.4702C299.75 67.6102 309.25 62.2402 318.5 56.4802C323.62 53.2902 328.44 53.1702 333.59 56.3302C340.42 60.5302 347.32 64.6002 354.29 68.5502C359.14 71.2902 361.39 75.2702 361.37 80.9202C361.31 115.15 361.34 149.39 361.34 183.61Z" fill="#0F1029"/>
<path fill-rule="evenodd" clip-rule="evenodd" d="M196.34 89.6299C198.35 90.7099 199.61 91.3299 200.83 92.0499C227.76 107.93 254.73 123.76 281.59 139.8C285.27 142 288.06 141.97 291.66 139.71C302 133.2 312.61 127.12 323 120.68C325.35 119.21 327.09 119.19 329.37 120.69C333.57 123.41 337.93 125.85 342.27 128.3C343.94 129.25 344.62 130.46 344.62 132.44C344.58 180.18 344.59 227.91 344.58 275.65C344.58 276.41 344.39 277.18 344.24 278.41C342.84 277.68 341.68 277.17 340.61 276.52C293.51 248.75 246.46 220.95 199.33 193.24C197.13 191.95 196.23 190.54 196.26 187.88C196.41 175.32 196.32 162.74 196.33 150.17C196.33 149.13 196.45 148.06 196.54 146.67C197.57 147.05 198.42 147.24 199.14 147.67C207.19 152.38 215.2 157.19 223.28 161.84C225.04 162.85 225.91 164.25 226.54 166.1C229.04 173.69 231.64 181.25 234.19 188.82C234.4 189.45 234.56 190.11 234.8 190.72C236.17 194.16 238.24 194.88 241.21 192.76C244.65 190.32 247.97 187.72 251.33 185.19C252.49 184.33 253.67 183.52 255.14 182.48C255.65 183.57 256.15 184.44 256.48 185.36C258.98 192.67 261.44 200 263.96 207.3C265.55 211.88 267.35 212.45 271.22 209.62C274.75 207.05 278.14 204.32 281.7 201.84C283.71 200.43 285.88 199.21 288.1 198.16C291.72 196.44 292.4 192.35 289.31 189.78C288.3 188.95 287.09 188.35 285.98 187.69C257.35 170.79 228.72 153.88 200.04 137.07C197.38 135.5 196.17 133.83 196.23 130.54C196.44 118.51 196.32 106.47 196.32 94.4399C196.34 93.1299 196.34 91.7999 196.34 89.6299Z" fill="#FF3034"/>
<path fill-rule="evenodd" clip-rule="evenodd" d="M38.32 222.02C38.32 219.98 38.32 218.79 38.32 217.59C38.32 205.44 38.42 193.27 38.25 181.12C38.21 178.03 39.16 176.37 41.78 174.82C84.93 149.46 128.03 124.03 171.11 98.5899C175.07 96.2599 179.03 93.8999 183 91.5899C183.98 91.0199 185.04 90.5599 186.41 89.8799C186.54 91.2799 186.71 92.2799 186.71 93.2999C186.71 105.99 186.67 118.69 186.75 131.39C186.78 133.79 186.1 135.21 183.97 136.46C136.65 164.3 89.37 192.22 42.1 220.11C41.11 220.69 40.06 221.13 38.32 222.02Z" fill="#FF3034"/>
<path fill-rule="evenodd" clip-rule="evenodd" d="M38.3201 278.68C38.3201 276.32 38.3201 274.87 38.3201 273.43C38.3201 261.67 38.4501 249.9 38.2501 238.15C38.1901 234.78 39.2001 232.96 42.1001 231.24C78.3601 210 114.54 188.6 150.74 167.25C161.25 161.03 171.77 154.81 182.29 148.61C183.51 147.9 184.76 147.29 186.44 146.37C186.54 148.12 186.68 149.39 186.68 150.66C186.7 162.95 186.59 175.26 186.77 187.54C186.8 190.5 185.74 192 183.32 193.43C140.75 218.45 98.2201 243.59 55.6701 268.7C51.2701 271.31 46.8801 273.92 42.4601 276.52C41.3601 277.14 40.2101 277.69 38.3201 278.68Z" fill="#FF3034"/>
<path fill-rule="evenodd" clip-rule="evenodd" d="M38.61 165.56C38.49 163.72 38.34 162.7 38.34 161.69C38.33 152.2 38.43 142.7 38.27 133.22C38.23 130.53 39.22 129.2 41.4 127.91C88.6 100.12 135.77 72.2601 182.96 44.4401C183.94 43.8601 184.98 43.3801 186.04 42.8301C186.84 45.8901 187.08 72.4101 186.38 78.3401C137.44 107.23 88.37 136.21 38.61 165.56Z" fill="#9C1923"/>
<path fill-rule="evenodd" clip-rule="evenodd" d="M196.73 42.46C236.82 66.11 276.37 89.4599 316.64 113.23C308.2 118.5 300.2 123.24 291.76 128.24C291.58 126.71 291.4 125.72 291.39 124.73C291.36 120.59 291.3 116.45 291.39 112.3C291.45 109.49 290.47 107.46 288.01 106.05C278.38 100.42 268.75 94.73 259.16 89.05C256.76 87.61 254.55 87.7 252.17 89.17C246.13 92.88 240.04 96.4999 233.82 100.23C231.39 98.8199 229 97.4599 226.65 96.0599C217.38 90.5899 208.12 85.0599 198.81 79.6599C197.16 78.6899 196.31 77.65 196.32 75.62C196.39 65.32 196.35 55.0399 196.36 44.7499C196.36 44.2299 196.52 43.72 196.73 42.46Z" fill="#9C1923"/>
<path fill-rule="evenodd" clip-rule="evenodd" d="M296.73 89.7101C297.49 89.1501 298.16 88.5601 298.92 88.1001C307.13 83.1401 315.39 78.2801 323.55 73.2101C325.51 71.9901 326.96 72.0001 328.88 73.2101C333.32 76.0201 337.88 78.6101 342.44 81.2601C343.78 82.0301 344.66 82.8801 344.64 84.6601C344.57 95.2201 344.58 105.78 344.55 116.33C344.55 116.72 344.36 117.1 344.27 117.48C341.53 116.89 300.57 92.9801 296.73 89.7101Z" fill="#9C1923"/>
<path fill-rule="evenodd" clip-rule="evenodd" d="M281.82 128.62C268.65 120.84 256.3 113.55 243.25 105.86C247.77 103.13 251.66 100.77 255.75 98.3101C259.4 100.45 263 102.55 266.6 104.67C270.9 107.21 275.2 109.74 279.5 112.25C280.78 113 281.9 113.75 281.85 115.58C281.76 119.57 281.82 123.57 281.82 128.62Z" fill="white"/>
<path fill-rule="evenodd" clip-rule="evenodd" d="M250.69 176.64C246.97 179.45 243.79 181.87 240.23 184.53C238.27 178.69 236.51 173.48 234.74 168.28C234.96 168.06 235.17 167.85 235.41 167.63C240.26 170.5 245.11 173.35 250.69 176.64Z" fill="white"/>
<path fill-rule="evenodd" clip-rule="evenodd" d="M264.44 184.8C269.63 187.87 274.5 190.72 280.04 193.97C276.41 196.72 273.34 199.05 270.26 201.37C268.38 198.93 265.14 189.79 264.44 184.8Z" fill="white"/>
<path d="M44.99 289.33L190.88 199.36L339.84 289.33L190.88 372.4L44.99 289.33Z" fill="#CC1718"/>
</svg>
